<svg xmlns="http://www.w3.org/2000/svg" xmlns:xlink="http://www.w3.org/1999/xlink" width="128" zoomAndPan="magnify" viewBox="0 0 96 95.999999" height="128" preserveAspectRatio="xMidYMid meet" version="1.0"><defs><g/><clipPath id="249af4efb4"><rect x="0" width="35" y="0" height="69"/></clipPath></defs><path fill="#95c7ec" d="M 52.371094 37.898438 L 52.074219 24.074219 C 52.074219 24.074219 59.28125 20.265625 60.660156 17.753906 C 62.039062 15.238281 61.46875 11.023438 59.933594 10.867188 C 58.394531 10.710938 51.75 15.570312 51.1875 15 C 50.617188 14.429688 53.941406 10.378906 53.78125 8.84375 C 53.617188 7.304688 48.675781 3.539062 48.675781 3.539062 L 43.085938 9.890625 C 43.085938 9.890625 44.707031 14.917969 44.46875 15.40625 C 44.226562 15.890625 36.609375 11.191406 34.988281 11.511719 C 33.367188 11.835938 33.921875 15.128906 34.484375 16.671875 C 35.054688 18.210938 45.433594 23.015625 45.433594 23.015625 L 44.984375 38.109375 C 44.984375 38.109375 43.085938 38.078125 42.601562 38.324219 C 42.113281 38.566406 40.949219 40.515625 40.949219 40.515625 C 40.949219 40.515625 30.039062 34.605469 29.953125 33.390625 C 29.871094 32.175781 30.121094 21.316406 29.550781 20.183594 C 28.980469 19.050781 26.550781 17.730469 25.335938 17.730469 C 24.121094 17.730469 23.308594 29.738281 22.582031 29.738281 C 21.855469 29.738281 19.09375 22.6875 18.285156 22.6875 C 17.476562 22.6875 11.199219 23.738281 11.199219 23.738281 L 13.589844 33.300781 L 21.046875 34.835938 L 11.917969 45.15625 C 11.917969 45.15625 14.152344 47.332031 16.261719 46.84375 C 18.367188 46.359375 24.441406 40.28125 25.085938 40.28125 C 25.734375 40.28125 36.757812 46.605469 36.757812 46.605469 C 36.757812 46.605469 36.269531 47.738281 36.59375 48.390625 C 36.914062 49.035156 37.484375 49.84375 37.484375 49.84375 C 37.484375 49.84375 26.550781 56.488281 25.816406 56.324219 C 25.078125 56.160156 17.714844 50.894531 15.609375 50.894531 C 13.5 50.894531 12.203125 53.648438 12.203125 53.648438 L 20.953125 61.019531 L 13.582031 64.664062 L 10.425781 71.226562 C 10.425781 71.226562 17.558594 73.738281 18.523438 73.492188 C 19.492188 73.246094 22.011719 67.253906 22.492188 67.09375 C 22.980469 66.929688 23.160156 68.460938 23.160156 68.460938 C 23.160156 68.460938 25.734375 76.5 26.707031 76.253906 C 27.683594 76.003906 30.113281 74.46875 30.433594 73.253906 C 30.757812 72.039062 29.953125 62.398438 29.953125 62.398438 L 41.460938 56.152344 C 41.460938 56.152344 42.375 57.636719 42.996094 58.085938 C 43.484375 58.441406 45.90625 58.671875 45.90625 58.671875 L 45.585938 71.226562 C 45.585938 71.226562 33.585938 76.402344 33.179688 77.859375 C 32.773438 79.3125 32.863281 82.566406 34.003906 82.972656 C 35.136719 83.378906 43.988281 79.328125 44.390625 79.648438 C 44.796875 79.972656 44.21875 85.964844 44.21875 85.964844 C 44.21875 85.964844 48.976562 92.683594 50.023438 92.039062 C 51.074219 91.394531 54.757812 87.269531 54.789062 86.503906 C 54.855469 85.058594 51.246094 80.070312 51.316406 79.777344 C 51.457031 79.140625 58.800781 84.425781 60.097656 84.261719 C 61.394531 84.097656 62.363281 82.726562 62.363281 81.179688 C 62.363281 79.640625 52.476562 72.351562 52.476562 72.351562 L 52.320312 58.425781 C 52.320312 58.425781 54.234375 58.320312 54.886719 57.996094 C 55.53125 57.675781 56.820312 54.742188 56.820312 54.742188 L 68.601562 62.640625 C 68.601562 62.640625 68.113281 75.929688 69.328125 76.738281 C 70.546875 77.550781 72.734375 78.039062 73.546875 77.632812 C 74.355469 77.226562 74.4375 65.886719 74.4375 65.886719 L 79.546875 70.507812 C 79.546875 70.507812 86.878906 69.855469 86.878906 68.878906 C 86.878906 67.90625 85.410156 62.398438 84.816406 61.921875 C 83.761719 61.066406 79.09375 61.484375 78.546875 61.191406 C 78.113281 60.960938 87.082031 57.382812 87.082031 55.925781 C 87.082031 54.472656 84.148438 52.171875 83.339844 52.085938 C 82.53125 52.003906 71.933594 56.738281 71.933594 56.738281 L 59.617188 49.449219 C 59.617188 49.449219 60.261719 48.316406 60.261719 47.746094 C 60.261719 47.175781 59.460938 46.222656 59.460938 46.222656 L 72.089844 39.324219 C 72.089844 39.324219 83.191406 43.289062 84.238281 42.808594 C 85.289062 42.324219 86.183594 41.429688 86.183594 40.546875 C 86.183594 39.660156 76.808594 35.347656 77.511719 34.957031 C 78.050781 34.65625 83.265625 35.28125 84.074219 34.957031 C 84.886719 34.636719 87.464844 28.066406 87.382812 27.742188 C 87.300781 27.421875 78.5625 25.238281 78.5625 25.238281 L 74.671875 29.859375 C 74.671875 29.859375 75.316406 21.105469 74.347656 20.136719 C 73.378906 19.171875 70.761719 19.648438 69.710938 20.378906 C 68.664062 21.105469 68.03125 33.988281 68.03125 33.988281 L 56.152344 40.433594 C 56.152344 40.433594 55.042969 38.648438 54.390625 38.316406 C 53.753906 37.964844 52.371094 37.898438 52.371094 37.898438 Z M 52.371094 37.898438 " fill-opacity="1" fill-rule="nonzero"/><path fill="#afe3ff" d="M 57.328125 42.039062 L 71.25 34.777344 L 71.039062 19.800781 C 71.039062 19.800781 68.878906 20.167969 67.824219 21.578125 C 66.765625 22.988281 67.117188 32.460938 67.117188 32.460938 L 55.074219 39.007812 Z M 57.328125 42.039062 " fill-opacity="1" fill-rule="nonzero"/><path fill="#afe3ff" d="M 74.609375 32.925781 C 74.609375 32.925781 79.171875 27.253906 80.046875 26.96875 C 81.515625 26.488281 87.195312 28.484375 87.195312 28.484375 C 87.195312 28.484375 87.824219 26.917969 87.570312 26.308594 C 87.316406 25.703125 80.332031 22.582031 78.660156 23.175781 C 77.355469 23.640625 74.699219 28.679688 74.699219 28.679688 Z M 74.609375 32.925781 " fill-opacity="1" fill-rule="nonzero"/><path fill="#afe3ff" d="M 74.21875 38.054688 C 73.921875 38.003906 71.488281 39.59375 71.488281 39.59375 C 71.488281 39.59375 78.703125 43.964844 80.820312 44.0625 C 83.429688 44.191406 85.15625 42.285156 85.15625 42.285156 C 85.15625 42.285156 83.289062 42.335938 81.929688 41.835938 C 79.71875 41.011719 74.21875 38.054688 74.21875 38.054688 Z M 74.21875 38.054688 " fill-opacity="1" fill-rule="nonzero"/><path fill="#afe3ff" d="M 57.890625 52.566406 L 56.183594 56.046875 C 56.183594 56.046875 66.464844 62.445312 66.511719 62.753906 C 66.5625 63.050781 66.253906 74.136719 67.320312 75.398438 C 68.378906 76.65625 70.394531 77.308594 70.394531 77.308594 C 70.394531 77.308594 71.003906 60.984375 70.949219 60.726562 C 70.890625 60.472656 57.890625 52.566406 57.890625 52.566406 Z M 57.890625 52.566406 " fill-opacity="1" fill-rule="nonzero"/><path fill="#afe3ff" d="M 71.011719 56.160156 C 71.011719 56.160156 78.253906 51.253906 80.21875 51.253906 C 82.183594 51.253906 83.851562 52.261719 83.851562 52.261719 L 74.265625 58.058594 Z M 71.011719 56.160156 " fill-opacity="1" fill-rule="nonzero"/><path fill="#afe3ff" d="M 74.773438 63.53125 C 74.519531 64.238281 74.390625 66.878906 74.390625 66.878906 C 74.390625 66.878906 76.746094 72.421875 78.40625 73.019531 C 80.070312 73.628906 86.414062 71.257812 86.925781 70.648438 C 87.425781 70.042969 86.683594 67.582031 86.683594 67.582031 C 86.683594 67.582031 81.667969 69.570312 80.167969 69.292969 C 78.246094 68.941406 74.773438 63.53125 74.773438 63.53125 Z M 74.773438 63.53125 " fill-opacity="1" fill-rule="nonzero"/><path fill="#afe3ff" d="M 44.273438 41.128906 C 43.546875 41.859375 40.371094 46.515625 40.3125 47.414062 C 40.253906 48.324219 43.785156 54.359375 44.632812 54.839844 C 45.480469 55.320312 52.304688 54.839844 52.304688 54.839844 L 55.808594 47.648438 C 55.808594 47.648438 52.726562 41.0625 52.246094 40.941406 C 51.765625 40.824219 44.761719 40.640625 44.273438 41.128906 Z M 44.273438 41.128906 " fill-opacity="1" fill-rule="nonzero"/><path fill="#afe3ff" d="M 47.386719 16.546875 C 47.863281 16.636719 45.609375 9.832031 45.609375 9.832031 L 50.601562 5.113281 C 50.601562 5.113281 48.742188 2.820312 47.78125 2.820312 C 46.816406 2.820312 41.558594 7.710938 41.558594 8.863281 C 41.558594 10.019531 44.460938 15.40625 44.460938 15.40625 C 44.460938 15.40625 46.46875 16.371094 47.386719 16.546875 Z M 47.386719 16.546875 " fill-opacity="1" fill-rule="nonzero"/><path fill="#afe3ff" d="M 33.929688 14.199219 C 33.929688 14.199219 33.9375 17.59375 35.023438 18.800781 C 36.113281 20.011719 43.851562 23.796875 43.851562 23.796875 L 44.046875 38.128906 L 47.414062 38.113281 L 47.414062 21.433594 C 47.414062 21.433594 40.710938 18.234375 39.382812 17.632812 C 38.054688 17.023438 34.898438 15.464844 33.929688 14.199219 Z M 33.929688 14.199219 " fill-opacity="1" fill-rule="nonzero"/><path fill="#afe3ff" d="M 29.714844 35.753906 L 39.863281 42.15625 L 41.496094 39.683594 L 29.953125 32.917969 Z M 29.714844 35.753906 " fill-opacity="1" fill-rule="nonzero"/><path fill="#afe3ff" d="M 22.476562 29.804688 C 22.476562 29.804688 24.621094 31.914062 25.085938 31.898438 C 25.988281 31.867188 25.925781 17.835938 25.925781 17.835938 C 25.925781 17.835938 24.195312 17.183594 23.289062 18.03125 C 22.371094 18.871094 22.476562 29.804688 22.476562 29.804688 Z M 22.476562 29.804688 " fill-opacity="1" fill-rule="nonzero"/><path fill="#afe3ff" d="M 21.382812 33.21875 C 23.535156 33.765625 23.128906 35.273438 22.828125 35.753906 C 22.53125 36.234375 12.683594 45.78125 12.683594 45.78125 C 12.683594 45.78125 10.808594 44.753906 10.808594 43.664062 C 10.808594 42.578125 19.351562 35.550781 18.898438 35.445312 C 18.546875 35.371094 12.433594 36.398438 11.109375 35.566406 C 10.253906 35.03125 7.882812 26.113281 8.332031 24.914062 C 8.691406 23.949219 11.773438 23.664062 11.773438 23.664062 C 11.773438 23.664062 12.863281 31.636719 13.710938 32.0625 C 14.550781 32.488281 19.664062 32.78125 21.382812 33.21875 Z M 21.382812 33.21875 " fill-opacity="1" fill-rule="nonzero"/><path fill="#afe3ff" d="M 37.273438 49.476562 L 25.246094 56.078125 L 28.265625 58.53125 L 38.773438 51.765625 Z M 37.273438 49.476562 " fill-opacity="1" fill-rule="nonzero"/><path fill="#afe3ff" d="M 23.558594 60.585938 C 23.46875 61.613281 19.238281 63.683594 18.878906 63.988281 C 18.515625 64.289062 14.558594 63.367188 14.308594 63.726562 C 14.070312 64.085938 11.796875 71.078125 11.371094 71.488281 C 11.308594 71.550781 8.902344 70.800781 8.722656 70.402344 C 8.289062 69.449219 10.988281 61.914062 12.195312 60.824219 C 13.402344 59.738281 18.71875 61.125 18.898438 60.765625 C 19.078125 60.40625 11.953125 56.535156 11.40625 55.328125 C 10.867188 54.121094 13.164062 52.183594 13.164062 52.183594 C 13.164062 52.183594 23.675781 59.191406 23.558594 60.585938 Z M 23.558594 60.585938 " fill-opacity="1" fill-rule="nonzero"/><path fill="#afe3ff" d="M 25.117188 64.574219 C 24.71875 64.296875 22.628906 67.078125 22.628906 67.078125 C 22.628906 67.078125 23.363281 76.074219 24.046875 76.648438 C 24.734375 77.234375 26.722656 76.246094 26.722656 76.246094 C 26.722656 76.246094 25.71875 64.996094 25.117188 64.574219 Z M 25.117188 64.574219 " fill-opacity="1" fill-rule="nonzero"/><path fill="#afe3ff" d="M 44.398438 58.449219 C 44.398438 58.449219 44.511719 69.644531 44.273438 70.066406 C 44.03125 70.484375 34.921875 74.8125 33.636719 76.46875 C 32.765625 77.59375 32.992188 80.558594 32.992188 80.558594 C 32.992188 80.558594 46.988281 72.667969 47.289062 72.425781 C 47.585938 72.1875 47.355469 58.484375 47.355469 58.484375 Z M 44.398438 58.449219 " fill-opacity="1" fill-rule="nonzero"/><path fill="#afe3ff" d="M 62.347656 81.425781 C 62.347656 81.425781 52.726562 75.464844 52.613281 74.664062 C 52.5 73.898438 52.441406 70.582031 52.441406 70.582031 C 52.441406 70.582031 60.890625 76.53125 61.738281 77.917969 C 62.585938 79.304688 62.347656 81.425781 62.347656 81.425781 Z M 62.347656 81.425781 " fill-opacity="1" fill-rule="nonzero"/><path fill="#afe3ff" d="M 45.300781 85.171875 C 45.449219 86.738281 51.015625 91.207031 51.015625 91.207031 C 51.015625 91.207031 49.253906 93.113281 48.34375 93.171875 C 47.4375 93.234375 41.488281 87.523438 41.371094 86.566406 C 41.25 85.597656 44.390625 79.5 44.390625 79.5 C 44.390625 79.5 45.800781 78.824219 46.867188 78.601562 C 47.542969 78.449219 45.15625 83.648438 45.300781 85.171875 Z M 45.300781 85.171875 " fill-opacity="1" fill-rule="nonzero"/><path fill="#fefefe" d="M 53.25 46.867188 C 53.25 46.867188 52.359375 48.644531 51.914062 49.648438 C 51.472656 50.65625 50.917969 52.371094 50.917969 52.371094 C 50.917969 52.371094 46.746094 52.695312 45.636719 52.648438 C 44.191406 52.597656 43.359375 55.207031 45.472656 55.261719 C 47.585938 55.3125 52.640625 55.425781 53.085938 55.09375 C 53.527344 54.765625 56.804688 48.757812 56.804688 47.421875 C 56.804688 46.085938 53.917969 42.367188 52.859375 41.308594 C 51.628906 40.078125 49.46875 41.308594 50.691406 43.3125 C 51.914062 45.316406 53.25 46.867188 53.25 46.867188 Z M 53.25 46.867188 " fill-opacity="1" fill-rule="nonzero"/><path fill="#fefefe" d="M 70.074219 22.222656 C 68.378906 22.164062 68.503906 24.457031 68.566406 27.113281 C 68.625 29.765625 68.804688 31.523438 70.191406 31.523438 C 71.886719 31.523438 71.578125 27.839844 71.578125 26.144531 C 71.578125 24.457031 71.828125 22.28125 70.074219 22.222656 Z M 70.074219 22.222656 " fill-opacity="1" fill-rule="nonzero"/><path fill="#fefefe" d="M 47.84375 5.671875 C 48.824219 6.652344 47.484375 8.324219 46.933594 8.8125 C 46.394531 9.292969 44.878906 10.261719 43.851562 9.292969 C 42.824219 8.324219 44.03125 6.9375 45 6.210938 C 45.96875 5.484375 47.113281 4.941406 47.84375 5.671875 Z M 47.84375 5.671875 " fill-opacity="1" fill-rule="nonzero"/><path fill="#fefefe" d="M 47.476562 20.894531 C 45.90625 20.714844 45.96875 24.578125 46.027344 29.296875 C 46.101562 35.339844 46.027344 38.175781 47.296875 38.113281 C 48.742188 38.046875 48.324219 35.03125 48.324219 28.746094 C 48.324219 25.296875 48.683594 21.03125 47.476562 20.894531 Z M 47.476562 20.894531 " fill-opacity="1" fill-rule="nonzero"/><path fill="#fefefe" d="M 11.226562 24.816406 C 9.179688 25.453125 10.078125 27.960938 10.621094 29.773438 C 10.964844 30.929688 12.015625 34.222656 13.941406 33.644531 C 15.871094 33.066406 14.730469 30.324219 14.300781 28.566406 C 13.890625 26.8125 12.984375 24.277344 11.226562 24.816406 Z M 11.226562 24.816406 " fill-opacity="1" fill-rule="nonzero"/><path fill="#fefefe" d="M 69.226562 67.171875 C 68.015625 67.171875 67.898438 69.464844 67.898438 71.519531 C 67.898438 73.574219 67.898438 75.082031 69.285156 75.082031 C 70.671875 75.082031 70.433594 72.058594 70.433594 70.972656 C 70.433594 69.886719 70.621094 67.171875 69.226562 67.171875 Z M 69.226562 67.171875 " fill-opacity="1" fill-rule="nonzero"/><path fill="#fefefe" d="M 47.355469 58.410156 C 46.328125 58.453125 46.207031 60.765625 46.207031 65.296875 C 46.207031 69.824219 45.960938 72.503906 47.476562 72.425781 C 48.683594 72.367188 48.441406 67.835938 48.441406 64.753906 C 48.441406 61.671875 48.808594 58.351562 47.355469 58.410156 Z M 47.355469 58.410156 " fill-opacity="1" fill-rule="nonzero"/><path fill="#fefefe" d="M 27.90625 58.453125 C 28.515625 59.160156 31.621094 57.1875 33.855469 55.957031 C 36.539062 54.480469 39.515625 53.0625 38.886719 51.808594 C 38.257812 50.558594 35.113281 52.777344 32.941406 53.910156 C 30.765625 55.050781 26.878906 57.261719 27.90625 58.453125 Z M 27.90625 58.453125 " fill-opacity="1" fill-rule="nonzero"/><path fill="#fefefe" d="M 18.53125 64.328125 C 17.878906 64.816406 16.058594 64.507812 15.269531 65.113281 C 14.484375 65.722656 14.316406 67.777344 13.394531 68.136719 C 12.007812 68.675781 10.921875 67.71875 11.640625 65.84375 C 12.367188 63.96875 12.609375 62.699219 13.265625 62.21875 C 13.933594 61.738281 16.351562 61.859375 17.316406 61.859375 C 19.011719 61.851562 19.5 63.601562 18.53125 64.328125 Z M 18.53125 64.328125 " fill-opacity="1" fill-rule="nonzero"/><g transform="matrix(1, 0, 0, 1, 31, 12)"><g clip-path="url(#249af4efb4)"><g fill="#0a0f1c" fill-opacity="1"><g transform="translate(0.947318, 56.638783)"><g><path d="M 30.777344 -6.332031 L 30.777344 1.058594 L 5.1875 1.058594 L 5.1875 -7.394531 L 14.167969 -7.394531 L 14.167969 -6.332031 L 13.105469 -6.332031 L 13.105469 -27.117188 C 13.105469 -27.65625 13.117188 -28.203125 13.136719 -28.753906 C 13.15625 -29.300781 13.183594 -29.855469 13.222656 -30.414062 L 14.28125 -30.339844 L 14.957031 -29.523438 L 10.25 -25.609375 L 10.234375 -25.597656 C 9.675781 -25.167969 9.109375 -24.90625 8.527344 -24.8125 C 8 -24.726562 7.496094 -24.726562 7.019531 -24.816406 C 6.527344 -24.90625 6.082031 -25.078125 5.683594 -25.332031 C 5.28125 -25.585938 4.972656 -25.863281 4.757812 -26.167969 L 5.628906 -26.777344 L 4.78125 -26.140625 L 1.402344 -30.617188 L 15.308594 -42.289062 L 23.992188 -42.289062 L 23.992188 -6.332031 L 22.933594 -6.332031 L 22.933594 -7.394531 L 30.777344 -7.394531 Z M 28.660156 -6.332031 L 29.71875 -6.332031 L 29.71875 -5.273438 L 21.871094 -5.273438 L 21.871094 -41.226562 L 22.933594 -41.226562 L 22.933594 -40.167969 L 15.695312 -40.167969 L 15.695312 -41.226562 L 16.375 -40.414062 L 3.539062 -29.640625 L 2.855469 -30.453125 L 3.703125 -31.09375 L 6.484375 -27.402344 L 6.496094 -27.386719 C 6.546875 -27.3125 6.652344 -27.226562 6.816406 -27.121094 C 6.984375 -27.015625 7.179688 -26.941406 7.402344 -26.902344 C 7.640625 -26.859375 7.902344 -26.859375 8.183594 -26.90625 C 8.414062 -26.941406 8.664062 -27.066406 8.9375 -27.277344 L 9.585938 -26.4375 L 8.90625 -27.253906 L 15.507812 -32.742188 L 15.335938 -30.269531 C 15.300781 -29.734375 15.273438 -29.203125 15.253906 -28.675781 C 15.234375 -28.152344 15.226562 -27.632812 15.226562 -27.117188 L 15.226562 -5.273438 L 6.25 -5.273438 L 6.25 -6.332031 L 7.308594 -6.332031 L 7.308594 0 L 6.25 0 L 6.25 -1.058594 L 29.71875 -1.058594 L 29.71875 0 L 28.660156 0 Z M 28.660156 -6.332031 "/></g></g></g><g fill="#fefefe" fill-opacity="1"><g transform="translate(0.947318, 56.638783)"><g><path d="M 29.71875 -6.328125 L 29.71875 0 L 6.25 0 L 6.25 -6.328125 L 14.171875 -6.328125 L 14.171875 -27.109375 C 14.171875 -27.640625 14.175781 -28.171875 14.1875 -28.703125 C 14.207031 -29.242188 14.238281 -29.789062 14.28125 -30.34375 L 9.578125 -26.4375 C 9.171875 -26.113281 8.765625 -25.914062 8.359375 -25.84375 C 7.953125 -25.78125 7.566406 -25.78125 7.203125 -25.84375 C 6.847656 -25.914062 6.53125 -26.039062 6.25 -26.21875 C 5.96875 -26.394531 5.757812 -26.582031 5.625 -26.78125 L 2.859375 -30.453125 L 15.6875 -41.21875 L 22.921875 -41.21875 L 22.921875 -6.328125 Z M 29.71875 -6.328125 "/></g></g></g></g></g></svg>