<svg xmlns="http://www.w3.org/2000/svg" xmlns:xlink="http://www.w3.org/1999/xlink" width="128" zoomAndPan="magnify" viewBox="0 0 96 95.999999" height="128" preserveAspectRatio="xMidYMid meet" version="1.0"><defs><g/><clipPath id="b56ab39f67"><rect x="0" width="35" y="0" height="69"/></clipPath></defs><path fill="#fcc11a" d="M 28.71875 21.855469 C 24.210938 27.652344 24.285156 37.957031 30.050781 43.058594 C 36.601562 48.847656 45.808594 48.796875 51.609375 43.460938 C 58.550781 37.074219 58.15625 26.429688 52.011719 20.40625 C 45.832031 14.347656 34.800781 14.03125 28.71875 21.855469 Z M 28.71875 21.855469 " fill-opacity="1" fill-rule="nonzero"/><path fill="#fee269" d="M 35.960938 19.867188 C 34.175781 19.074219 32.226562 21.226562 31.371094 22.703125 C 30.523438 24.171875 29.730469 27.058594 31.546875 27.800781 C 33.359375 28.539062 34.65625 27.292969 35.960938 25.140625 C 37.265625 22.980469 38.003906 20.773438 35.960938 19.867188 Z M 35.960938 19.867188 " fill-opacity="1" fill-rule="nonzero"/><path fill="#ffa722" d="M 40.605469 11.78125 C 40.171875 12.59375 40.320312 13.214844 41.175781 13.417969 C 42.03125 13.621094 47.386719 14.488281 47.835938 14.519531 C 48.488281 14.558594 48.734375 14.070312 48.652344 13.5 C 48.570312 12.929688 47.265625 4.921875 47.136719 4.183594 C 47.015625 3.449219 46.238281 2.714844 45.503906 3.699219 C 44.765625 4.679688 40.933594 11.167969 40.605469 11.78125 Z M 40.605469 11.78125 " fill-opacity="1" fill-rule="nonzero"/><path fill="#ffa722" d="M 54.449219 17.339844 C 53.609375 17.601562 53.632812 18.113281 54.082031 18.773438 C 54.53125 19.425781 57.636719 24.164062 57.921875 24.488281 C 58.207031 24.816406 58.695312 24.890625 59.109375 24.40625 C 59.519531 23.917969 64.621094 16.761719 64.988281 16.320312 C 65.601562 15.585938 65.234375 14.804688 64.289062 15.050781 C 63.585938 15.238281 54.984375 17.175781 54.449219 17.339844 Z M 54.449219 17.339844 " fill-opacity="1" fill-rule="nonzero"/><path fill="#ffa722" d="M 22.589844 39.066406 C 23.160156 38.128906 23.894531 38.371094 24.425781 39.269531 C 24.789062 39.886719 27.855469 44.011719 28.148438 44.460938 C 28.433594 44.910156 28.550781 45.765625 27.660156 45.976562 C 26.761719 46.175781 19.449219 48.097656 18.308594 48.300781 C 17.167969 48.503906 16.507812 47.601562 17.242188 46.628906 C 17.671875 46.050781 22.265625 39.601562 22.589844 39.066406 Z M 22.589844 39.066406 " fill-opacity="1" fill-rule="nonzero"/><path fill="#ffa722" d="M 21.046875 31.957031 C 22.085938 32.421875 22.582031 32.257812 22.800781 31.507812 C 23.085938 30.523438 23.941406 26.03125 23.984375 25.011719 C 24.015625 24.34375 23.738281 23.707031 22.71875 23.871094 C 21.699219 24.039062 14.347656 25.058594 13.402344 25.386719 C 12.316406 25.769531 12.390625 26.96875 13.117188 27.34375 C 13.972656 27.796875 20.308594 31.636719 21.046875 31.957031 Z M 21.046875 31.957031 " fill-opacity="1" fill-rule="nonzero"/><path fill="#ffa722" d="M 33.742188 14.804688 C 34.328125 14.332031 34.148438 13.664062 33.621094 13.289062 C 33.089844 12.921875 26.527344 8.175781 25.695312 7.53125 C 24.960938 6.960938 24.058594 7.164062 24.308594 8.46875 C 24.480469 9.40625 26.574219 17.625 26.714844 18.1875 C 26.878906 18.839844 27.367188 19.171875 27.9375 18.757812 C 28.515625 18.359375 33.136719 15.292969 33.742188 14.804688 Z M 33.742188 14.804688 " fill-opacity="1" fill-rule="nonzero"/><path fill="#e2ebee" d="M 74.414062 48.871094 C 74.414062 48.871094 77.070312 31.265625 61.214844 27.097656 C 44.003906 22.566406 39.96875 38.550781 39.96875 38.550781 C 39.96875 38.550781 34.957031 37.183594 30.328125 40.90625 C 26.707031 43.816406 26.085938 48.945312 26.085938 48.945312 C 26.085938 48.945312 19.027344 48.703125 15.996094 53.574219 C 13.117188 58.199219 15.996094 61.238281 15.996094 61.238281 L 57.652344 59.566406 L 83.296875 59.714844 C 83.296875 59.714844 85.148438 54.898438 81.585938 51.5625 C 78.015625 48.234375 74.414062 48.871094 74.414062 48.871094 Z M 74.414062 48.871094 " fill-opacity="1" fill-rule="nonzero"/><path fill="#b9ced3" d="M 45.96875 50.617188 C 45.96875 50.617188 49.15625 53.804688 57.503906 53.273438 C 65.851562 52.738281 70.246094 49.785156 71.234375 49.328125 C 72.226562 48.871094 73.359375 47.8125 73.738281 48.570312 C 74.121094 49.328125 73.28125 51.449219 72.148438 52.972656 C 71.011719 54.488281 70.371094 55.410156 70.175781 56.085938 C 70.027344 56.617188 72.53125 57.375 77.234375 57.601562 C 81.253906 57.796875 83.789062 56.984375 83.789062 56.984375 C 83.789062 56.984375 83.902344 59.511719 82.921875 61.484375 C 82.003906 63.308594 81.050781 63.898438 79.539062 64.207031 C 78.757812 64.363281 64.035156 64.359375 51.367188 64.65625 C 38.699219 64.957031 22.15625 65.488281 19.351562 64.582031 C 16.546875 63.675781 15.855469 61.898438 15.496094 61.207031 C 14.863281 60.023438 14.730469 58.171875 14.730469 58.171875 C 14.730469 58.171875 17.835938 59.730469 22.238281 59.121094 C 26.640625 58.515625 28.988281 56.242188 29.59375 56.011719 C 30.203125 55.785156 33.082031 57.226562 37.636719 56.085938 C 43.996094 54.488281 45.96875 50.617188 45.96875 50.617188 Z M 45.96875 50.617188 " fill-opacity="1" fill-rule="nonzero"/><path fill="#4fc2f7" d="M 35.445312 68.183594 C 34.453125 67.824219 30.15625 70.90625 28.613281 75.015625 C 26.332031 81.082031 34.453125 83.109375 36.164062 77.265625 C 36.816406 75.046875 36.808594 68.675781 35.445312 68.183594 Z M 35.445312 68.183594 " fill-opacity="1" fill-rule="nonzero"/><path fill="#4fc2f7" d="M 67.550781 72.609375 C 66.675781 72.21875 63.1875 74.871094 61.605469 77.101562 C 60.089844 79.230469 58.738281 82.828125 62.460938 84.675781 C 66.515625 86.675781 68.363281 82.320312 68.535156 79.15625 C 68.691406 76.289062 68.324219 72.953125 67.550781 72.609375 Z M 67.550781 72.609375 " fill-opacity="1" fill-rule="nonzero"/><path fill="#4fc2f7" d="M 49.890625 79.800781 C 48.789062 79.539062 44.558594 82.972656 43.042969 86.175781 C 40.003906 92.59375 49.335938 94.859375 50.488281 88.703125 C 51.226562 84.796875 50.789062 80.011719 49.890625 79.800781 Z M 49.890625 79.800781 " fill-opacity="1" fill-rule="nonzero"/><path fill="#afe6f8" d="M 45.929688 84.789062 C 45.050781 84.433594 43.34375 86.585938 43.53125 88.5 C 43.726562 90.414062 45.300781 90.585938 46.050781 89.527344 C 47.054688 88.125 46.800781 85.132812 45.929688 84.789062 Z M 45.929688 84.789062 " fill-opacity="1" fill-rule="nonzero"/><path fill="#afe6f8" d="M 31.261719 73.171875 C 30.425781 72.78125 29.003906 75.058594 29.015625 76.238281 C 29.054688 78.636719 30.824219 78.796875 31.648438 77.609375 C 32.476562 76.433594 32.4375 73.726562 31.261719 73.171875 Z M 31.261719 73.171875 " fill-opacity="1" fill-rule="nonzero"/><path fill="#afe6f8" d="M 63.621094 77.828125 C 62.632812 77.355469 60.929688 79.539062 61.058594 81.121094 C 61.28125 83.851562 63.449219 83.683594 64.175781 82.191406 C 64.90625 80.699219 64.515625 78.253906 63.621094 77.828125 Z M 63.621094 77.828125 " fill-opacity="1" fill-rule="nonzero"/><g transform="matrix(1, 0, 0, 1, 30, 10)"><g clip-path="url(#b56ab39f67)"><g fill="#0a0f1c" fill-opacity="1"><g transform="translate(1.047318, 56.538783)"><g><path d="M 27.597656 -8.976562 C 28.824219 -8.976562 29.808594 -8.621094 30.5625 -7.910156 C 31.328125 -7.183594 31.710938 -6.242188 31.710938 -5.089844 L 31.710938 1.058594 L 0.636719 1.058594 L 0.636719 -2.828125 C 0.636719 -3.5 0.769531 -4.203125 1.039062 -4.941406 C 1.324219 -5.730469 1.816406 -6.4375 2.515625 -7.066406 L 3.222656 -6.277344 L 2.472656 -7.023438 L 14.347656 -18.984375 C 15.339844 -19.980469 16.203125 -20.925781 16.9375 -21.820312 C 17.648438 -22.695312 18.234375 -23.550781 18.695312 -24.386719 C 19.144531 -25.210938 19.480469 -26.03125 19.703125 -26.84375 C 19.925781 -27.648438 20.035156 -28.503906 20.035156 -29.40625 C 20.035156 -30.777344 19.734375 -31.800781 19.128906 -32.476562 C 18.558594 -33.117188 17.628906 -33.4375 16.34375 -33.4375 C 15.285156 -33.4375 14.402344 -33.167969 13.695312 -32.625 C 12.972656 -32.066406 12.472656 -31.382812 12.203125 -30.570312 L 12.195312 -30.550781 L 12.1875 -30.527344 C 11.699219 -29.242188 11.015625 -28.367188 10.136719 -27.90625 C 9.289062 -27.457031 8.152344 -27.34375 6.734375 -27.570312 L 1.0625 -28.570312 L 1.214844 -29.589844 C 1.535156 -31.773438 2.15625 -33.6875 3.078125 -35.328125 C 4 -36.972656 5.152344 -38.351562 6.535156 -39.453125 C 7.914062 -40.554688 9.488281 -41.378906 11.257812 -41.917969 C 12.996094 -42.445312 14.863281 -42.710938 16.851562 -42.710938 C 19.011719 -42.710938 20.96875 -42.394531 22.714844 -41.757812 C 24.476562 -41.113281 25.988281 -40.21875 27.242188 -39.066406 C 28.503906 -37.90625 29.472656 -36.523438 30.144531 -34.921875 C 30.8125 -33.328125 31.148438 -31.585938 31.148438 -29.691406 C 31.148438 -28.066406 30.917969 -26.5625 30.457031 -25.171875 C 30.003906 -23.808594 29.386719 -22.507812 28.605469 -21.277344 C 27.839844 -20.066406 26.953125 -18.898438 25.941406 -17.769531 C 24.960938 -16.675781 23.917969 -15.566406 22.8125 -14.441406 L 14.753906 -6.1875 L 13.996094 -6.929688 L 13.683594 -7.941406 C 14.765625 -8.273438 15.839844 -8.53125 16.90625 -8.707031 C 17.980469 -8.886719 18.980469 -8.976562 19.90625 -8.976562 Z M 27.597656 -6.855469 L 19.90625 -6.855469 C 19.097656 -6.855469 18.214844 -6.777344 17.253906 -6.617188 C 16.28125 -6.457031 15.300781 -6.222656 14.308594 -5.914062 L 13.238281 -7.667969 L 21.300781 -15.929688 C 22.382812 -17.027344 23.402344 -18.113281 24.363281 -19.1875 C 25.292969 -20.226562 26.113281 -21.300781 26.816406 -22.410156 C 27.503906 -23.496094 28.046875 -24.640625 28.441406 -25.839844 C 28.832031 -27.011719 29.027344 -28.296875 29.027344 -29.691406 C 29.027344 -31.300781 28.746094 -32.773438 28.1875 -34.101562 C 27.636719 -35.417969 26.84375 -36.554688 25.804688 -37.503906 C 24.761719 -38.464844 23.488281 -39.21875 21.988281 -39.765625 C 20.476562 -40.316406 18.765625 -40.589844 16.851562 -40.589844 C 15.074219 -40.589844 13.414062 -40.355469 11.875 -39.886719 C 10.363281 -39.425781 9.023438 -38.730469 7.859375 -37.796875 C 6.695312 -36.867188 5.714844 -35.695312 4.925781 -34.289062 C 4.132812 -32.875 3.59375 -31.207031 3.3125 -29.28125 L 2.261719 -29.4375 L 2.445312 -30.480469 L 7.066406 -29.664062 C 8.019531 -29.511719 8.714844 -29.550781 9.144531 -29.777344 C 9.550781 -29.996094 9.90625 -30.496094 10.207031 -31.285156 L 11.199219 -30.90625 L 10.191406 -31.242188 C 10.597656 -32.464844 11.335938 -33.484375 12.402344 -34.304688 C 13.488281 -35.140625 14.804688 -35.558594 16.34375 -35.558594 C 18.261719 -35.558594 19.71875 -35 20.710938 -33.886719 C 21.671875 -32.8125 22.15625 -31.316406 22.15625 -29.40625 C 22.15625 -28.3125 22.019531 -27.273438 21.75 -26.285156 C 21.484375 -25.308594 21.085938 -24.339844 20.554688 -23.371094 C 20.03125 -22.417969 19.375 -21.453125 18.578125 -20.480469 C 17.800781 -19.527344 16.894531 -18.53125 15.851562 -17.492188 L 3.953125 -5.507812 L 3.933594 -5.488281 C 3.5 -5.097656 3.199219 -4.675781 3.03125 -4.21875 C 2.847656 -3.714844 2.757812 -3.25 2.757812 -2.828125 L 2.757812 0 L 1.695312 0 L 1.695312 -1.058594 L 30.652344 -1.058594 L 30.652344 0 L 29.589844 0 L 29.589844 -5.089844 C 29.589844 -5.632812 29.429688 -6.0625 29.101562 -6.371094 C 28.761719 -6.695312 28.257812 -6.855469 27.597656 -6.855469 Z M 27.597656 -6.855469 "/></g></g></g><g fill="#fefefe" fill-opacity="1"><g transform="translate(1.047318, 56.538783)"><g><path d="M 27.59375 -7.921875 C 28.539062 -7.921875 29.285156 -7.660156 29.828125 -7.140625 C 30.367188 -6.617188 30.640625 -5.9375 30.640625 -5.09375 L 30.640625 0 L 1.703125 0 L 1.703125 -2.828125 C 1.703125 -3.367188 1.8125 -3.953125 2.03125 -4.578125 C 2.257812 -5.203125 2.65625 -5.769531 3.21875 -6.28125 L 15.09375 -18.234375 C 16.113281 -19.253906 17 -20.222656 17.75 -21.140625 C 18.507812 -22.066406 19.132812 -22.976562 19.625 -23.875 C 20.113281 -24.769531 20.476562 -25.664062 20.71875 -26.5625 C 20.96875 -27.457031 21.09375 -28.40625 21.09375 -29.40625 C 21.09375 -31.039062 20.703125 -32.296875 19.921875 -33.171875 C 19.140625 -34.054688 17.945312 -34.5 16.34375 -34.5 C 15.039062 -34.5 13.941406 -34.148438 13.046875 -33.453125 C 12.148438 -32.765625 11.535156 -31.914062 11.203125 -30.90625 C 10.804688 -29.863281 10.285156 -29.171875 9.640625 -28.828125 C 9.003906 -28.492188 8.09375 -28.421875 6.90625 -28.609375 L 2.265625 -29.4375 C 2.566406 -31.488281 3.144531 -33.273438 4 -34.796875 C 4.851562 -36.328125 5.914062 -37.597656 7.1875 -38.609375 C 8.46875 -39.628906 9.925781 -40.390625 11.5625 -40.890625 C 13.207031 -41.390625 14.96875 -41.640625 16.84375 -41.640625 C 18.882812 -41.640625 20.71875 -41.34375 22.34375 -40.75 C 23.976562 -40.15625 25.367188 -39.332031 26.515625 -38.28125 C 27.671875 -37.226562 28.550781 -35.96875 29.15625 -34.5 C 29.769531 -33.039062 30.078125 -31.4375 30.078125 -29.6875 C 30.078125 -28.175781 29.863281 -26.78125 29.4375 -25.5 C 29.019531 -24.21875 28.441406 -23 27.703125 -21.84375 C 26.972656 -20.6875 26.117188 -19.5625 25.140625 -18.46875 C 24.171875 -17.382812 23.140625 -16.289062 22.046875 -15.1875 L 14 -6.921875 C 15.03125 -7.242188 16.054688 -7.488281 17.078125 -7.65625 C 18.097656 -7.832031 19.039062 -7.921875 19.90625 -7.921875 Z M 27.59375 -7.921875 "/></g></g></g></g></g></svg>