<svg xmlns="http://www.w3.org/2000/svg" xmlns:xlink="http://www.w3.org/1999/xlink" width="128" zoomAndPan="magnify" viewBox="0 0 96 95.999999" height="128" preserveAspectRatio="xMidYMid meet" version="1.0"><defs><g/><clipPath id="9c92eb8460"><path d="M 0.921875 13 L 33 13 L 33 59 L 0.921875 59 Z M 0.921875 13 " clip-rule="nonzero"/></clipPath><clipPath id="b2166dba9d"><rect x="0" width="35" y="0" height="69"/></clipPath></defs><path fill="#fcc11a" d="M 28.058594 31.460938 C 20.773438 40.824219 20.902344 57.449219 30.210938 65.691406 C 40.777344 75.046875 55.648438 74.949219 65.003906 66.34375 C 76.214844 56.023438 75.570312 38.851562 65.65625 29.121094 C 55.6875 19.34375 37.875 18.832031 28.058594 31.460938 Z M 28.058594 31.460938 " fill-opacity="1" fill-rule="nonzero"/><path fill="#fee269" d="M 39.75 28.253906 C 36.871094 26.976562 33.71875 30.449219 32.347656 32.820312 C 30.976562 35.199219 29.699219 39.855469 32.625 41.046875 C 35.550781 42.234375 37.648438 40.222656 39.757812 36.75 C 41.851562 33.277344 43.042969 29.714844 39.75 28.253906 Z M 39.75 28.253906 " fill-opacity="1" fill-rule="nonzero"/><path fill="#ffa722" d="M 47.25 15.203125 C 46.550781 16.507812 46.785156 17.511719 48.171875 17.84375 C 49.558594 18.171875 58.191406 19.574219 58.921875 19.621094 C 59.976562 19.6875 60.367188 18.890625 60.238281 17.96875 C 60.105469 17.046875 57.996094 4.125 57.800781 2.941406 C 57.609375 1.753906 56.355469 0.570312 55.164062 2.152344 C 53.96875 3.734375 47.773438 14.21875 47.25 15.203125 Z M 47.25 15.203125 " fill-opacity="1" fill-rule="nonzero"/><path fill="#ffa722" d="M 69.601562 24.171875 C 68.242188 24.59375 68.28125 25.425781 69.007812 26.484375 C 69.734375 27.539062 74.746094 35.183594 75.203125 35.714844 C 75.667969 36.238281 76.453125 36.375 77.113281 35.578125 C 77.773438 34.792969 86.011719 23.242188 86.609375 22.523438 C 87.601562 21.335938 87.007812 20.085938 85.492188 20.476562 C 84.335938 20.78125 70.453125 23.910156 69.601562 24.171875 Z M 69.601562 24.171875 " fill-opacity="1" fill-rule="nonzero"/><path fill="#ffa722" d="M 79.949219 46.394531 C 78.976562 45.839844 77.707031 45.996094 77.378906 47.25 C 77.046875 48.503906 75.601562 57.601562 75.464844 58.394531 C 75.328125 59.191406 75.929688 59.976562 76.914062 59.78125 C 77.894531 59.585938 91.5 57.570312 92.40625 57.34375 C 93.988281 56.949219 94.515625 55.363281 92.871094 54.179688 C 91.808594 53.40625 80.871094 46.921875 79.949219 46.394531 Z M 79.949219 46.394531 " fill-opacity="1" fill-rule="nonzero"/><path fill="#ffa722" d="M 69.066406 67.949219 C 70.117188 67.386719 71.046875 67.816406 71.308594 69.007812 C 71.574219 70.191406 74.476562 82.328125 74.941406 84.570312 C 75.171875 85.695312 73.882812 86.617188 72.832031 85.957031 C 71.773438 85.296875 60.316406 77.308594 59.578125 76.65625 C 58.523438 75.734375 59.257812 74.773438 59.773438 74.289062 C 60.824219 73.289062 68.078125 68.484375 69.066406 67.949219 Z M 69.066406 67.949219 " fill-opacity="1" fill-rule="nonzero"/><path fill="#ffa722" d="M 37.15625 74.609375 C 35.828125 74.484375 35.4375 75.667969 35.640625 76.71875 C 35.835938 77.773438 37.816406 91.148438 37.949219 92.144531 C 38.144531 93.59375 39.667969 94.191406 40.648438 92.738281 C 41.632812 91.28125 48.414062 80.4375 48.960938 79.417969 C 49.949219 77.574219 49.222656 77.175781 48.234375 76.71875 C 47.25 76.261719 38.542969 74.746094 37.15625 74.609375 Z M 37.15625 74.609375 " fill-opacity="1" fill-rule="nonzero"/><path fill="#ffa722" d="M 18.171875 59.25 C 19.09375 57.734375 20.28125 58.132812 21.140625 59.578125 C 21.726562 60.570312 26.675781 67.230469 27.140625 67.949219 C 27.609375 68.675781 27.800781 70.058594 26.355469 70.386719 C 24.890625 70.726562 13.09375 73.824219 11.25 74.152344 C 9.40625 74.484375 8.347656 73.035156 9.53125 71.453125 C 10.222656 70.523438 17.648438 60.113281 18.171875 59.25 Z M 18.171875 59.25 " fill-opacity="1" fill-rule="nonzero"/><path fill="#ffa722" d="M 15.667969 47.773438 C 17.355469 48.523438 18.148438 48.253906 18.503906 47.046875 C 18.96875 45.464844 20.347656 38.210938 20.414062 36.5625 C 20.460938 35.488281 20.015625 34.453125 18.367188 34.71875 C 16.71875 34.980469 4.851562 36.636719 3.335938 37.164062 C 1.574219 37.777344 1.703125 39.710938 2.871094 40.328125 C 4.261719 41.054688 14.476562 47.25 15.667969 47.773438 Z M 15.667969 47.773438 " fill-opacity="1" fill-rule="nonzero"/><path fill="#ffa722" d="M 36.171875 20.085938 C 37.125 19.328125 36.832031 18.238281 35.976562 17.648438 C 35.121094 17.054688 24.53125 9.398438 23.191406 8.347656 C 22.003906 7.425781 20.550781 7.753906 20.949219 9.863281 C 21.234375 11.378906 24.609375 24.636719 24.839844 25.550781 C 25.101562 26.609375 25.898438 27.136719 26.820312 26.476562 C 27.726562 25.824219 35.183594 20.878906 36.171875 20.085938 Z M 36.171875 20.085938 " fill-opacity="1" fill-rule="nonzero"/><g transform="matrix(1, 0, 0, 1, 31, 12)"><g clip-path="url(#b2166dba9d)"><g clip-path="url(#9c92eb8460)"><g fill="#0a0f1c" fill-opacity="1"><g transform="translate(0.947318, 56.638783)"><g><path d="M 1.4375 -29.589844 C 1.761719 -31.773438 2.382812 -33.6875 3.304688 -35.328125 C 4.226562 -36.972656 5.378906 -38.351562 6.761719 -39.453125 C 8.136719 -40.554688 9.710938 -41.378906 11.480469 -41.917969 C 13.222656 -42.445312 15.089844 -42.710938 17.078125 -42.710938 C 19.238281 -42.710938 21.167969 -42.402344 22.871094 -41.785156 C 24.582031 -41.164062 26.035156 -40.316406 27.230469 -39.246094 C 28.4375 -38.164062 29.355469 -36.90625 29.984375 -35.472656 C 30.609375 -34.046875 30.921875 -32.542969 30.921875 -30.960938 C 30.921875 -29.570312 30.777344 -28.332031 30.488281 -27.253906 C 30.191406 -26.140625 29.746094 -25.167969 29.152344 -24.335938 C 28.558594 -23.503906 27.824219 -22.800781 26.949219 -22.230469 C 26.113281 -21.679688 25.160156 -21.222656 24.097656 -20.855469 L 23.753906 -21.859375 L 24.105469 -22.859375 C 26.589844 -21.984375 28.46875 -20.683594 29.738281 -18.949219 C 31.015625 -17.207031 31.65625 -15.066406 31.65625 -12.527344 C 31.65625 -10.175781 31.222656 -8.117188 30.359375 -6.347656 C 29.5 -4.585938 28.34375 -3.121094 26.894531 -1.945312 C 25.457031 -0.785156 23.796875 0.0820312 21.914062 0.660156 C 20.058594 1.230469 18.128906 1.511719 16.117188 1.511719 C 14.0625 1.511719 12.222656 1.289062 10.601562 0.835938 C 8.945312 0.378906 7.472656 -0.339844 6.175781 -1.316406 C 4.886719 -2.289062 3.761719 -3.523438 2.796875 -5.027344 C 1.855469 -6.492188 1.042969 -8.226562 0.355469 -10.230469 L 0.0273438 -11.179688 L 4.859375 -13.140625 C 6.085938 -13.617188 7.238281 -13.738281 8.3125 -13.507812 C 9.492188 -13.25 10.347656 -12.640625 10.878906 -11.683594 C 11.65625 -10.25 12.460938 -9.226562 13.285156 -8.613281 C 14.050781 -8.046875 14.957031 -7.761719 16.003906 -7.761719 C 16.832031 -7.761719 17.539062 -7.894531 18.125 -8.160156 C 18.722656 -8.433594 19.210938 -8.777344 19.59375 -9.191406 C 19.980469 -9.605469 20.273438 -10.078125 20.46875 -10.605469 C 20.667969 -11.144531 20.769531 -11.691406 20.769531 -12.242188 C 20.769531 -13.070312 20.714844 -13.804688 20.601562 -14.453125 C 20.519531 -14.917969 20.289062 -15.324219 19.902344 -15.667969 C 19.472656 -16.058594 18.773438 -16.367188 17.808594 -16.597656 C 16.75 -16.851562 15.242188 -16.980469 13.289062 -16.980469 L 12.230469 -16.980469 L 12.230469 -25.152344 L 13.289062 -25.152344 C 14.917969 -25.152344 16.21875 -25.273438 17.1875 -25.515625 C 18.09375 -25.742188 18.773438 -26.039062 19.226562 -26.402344 C 19.628906 -26.722656 19.890625 -27.105469 20.019531 -27.550781 C 20.179688 -28.113281 20.261719 -28.742188 20.261719 -29.4375 C 20.261719 -30.789062 19.957031 -31.800781 19.355469 -32.476562 C 18.785156 -33.117188 17.855469 -33.4375 16.570312 -33.4375 C 15.507812 -33.4375 14.625 -33.167969 13.921875 -32.625 C 13.199219 -32.066406 12.699219 -31.382812 12.429688 -30.570312 L 12.421875 -30.550781 L 12.414062 -30.527344 C 11.921875 -29.242188 11.242188 -28.367188 10.363281 -27.90625 C 9.515625 -27.457031 8.378906 -27.34375 6.960938 -27.570312 L 1.289062 -28.570312 Z M 3.539062 -29.28125 L 2.488281 -29.4375 L 2.671875 -30.480469 L 7.292969 -29.664062 C 8.246094 -29.511719 8.941406 -29.550781 9.371094 -29.777344 C 9.777344 -29.996094 10.132812 -30.496094 10.433594 -31.285156 L 11.421875 -30.90625 L 10.417969 -31.242188 C 10.824219 -32.464844 11.5625 -33.484375 12.628906 -34.304688 C 13.714844 -35.140625 15.027344 -35.558594 16.570312 -35.558594 C 18.488281 -35.558594 19.945312 -35 20.9375 -33.886719 C 21.898438 -32.8125 22.378906 -31.328125 22.378906 -29.4375 C 22.378906 -28.546875 22.273438 -27.722656 22.058594 -26.96875 C 21.808594 -26.089844 21.308594 -25.351562 20.554688 -24.75 C 19.859375 -24.191406 18.910156 -23.761719 17.703125 -23.457031 C 16.5625 -23.171875 15.09375 -23.03125 13.289062 -23.03125 L 13.289062 -24.089844 L 14.351562 -24.089844 L 14.351562 -18.039062 L 13.289062 -18.039062 L 13.289062 -19.101562 C 15.410156 -19.101562 17.078125 -18.953125 18.300781 -18.660156 C 19.617188 -18.347656 20.625 -17.875 21.324219 -17.246094 C 22.070312 -16.574219 22.527344 -15.761719 22.691406 -14.8125 C 22.824219 -14.046875 22.890625 -13.191406 22.890625 -12.242188 C 22.890625 -11.4375 22.746094 -10.644531 22.457031 -9.867188 C 22.160156 -9.074219 21.726562 -8.371094 21.152344 -7.746094 C 20.574219 -7.125 19.855469 -6.621094 19.003906 -6.230469 C 18.136719 -5.835938 17.136719 -5.640625 16.003906 -5.640625 C 14.488281 -5.640625 13.160156 -6.0625 12.023438 -6.910156 C 10.945312 -7.710938 9.945312 -8.957031 9.027344 -10.652344 C 8.804688 -11.054688 8.417969 -11.3125 7.863281 -11.433594 C 7.203125 -11.578125 6.46875 -11.492188 5.65625 -11.175781 L 1.757812 -9.59375 L 1.355469 -10.574219 L 2.359375 -10.917969 C 2.992188 -9.078125 3.734375 -7.496094 4.582031 -6.171875 C 5.410156 -4.882812 6.367188 -3.828125 7.453125 -3.011719 C 8.535156 -2.195312 9.773438 -1.59375 11.171875 -1.207031 C 12.605469 -0.808594 14.253906 -0.609375 16.117188 -0.609375 C 17.914062 -0.609375 19.640625 -0.859375 21.292969 -1.367188 C 22.914062 -1.863281 24.335938 -2.605469 25.558594 -3.59375 C 26.765625 -4.570312 27.730469 -5.800781 28.453125 -7.28125 C 29.175781 -8.753906 29.535156 -10.503906 29.535156 -12.527344 C 29.535156 -14.605469 29.03125 -16.328125 28.03125 -17.695312 C 27.019531 -19.074219 25.476562 -20.128906 23.402344 -20.855469 L 20.53125 -21.863281 L 23.40625 -22.859375 C 24.304688 -23.171875 25.097656 -23.550781 25.789062 -24.003906 C 26.441406 -24.429688 26.988281 -24.953125 27.429688 -25.570312 C 27.871094 -26.191406 28.207031 -26.933594 28.441406 -27.800781 C 28.679688 -28.699219 28.800781 -29.753906 28.800781 -30.960938 C 28.800781 -32.246094 28.546875 -33.46875 28.039062 -34.625 C 27.535156 -35.773438 26.792969 -36.789062 25.816406 -37.667969 C 24.824219 -38.554688 23.601562 -39.265625 22.144531 -39.792969 C 20.679688 -40.324219 18.992188 -40.589844 17.078125 -40.589844 C 15.300781 -40.589844 13.640625 -40.355469 12.101562 -39.886719 C 10.589844 -39.425781 9.25 -38.730469 8.085938 -37.796875 C 6.921875 -36.867188 5.941406 -35.695312 5.152344 -34.289062 C 4.359375 -32.875 3.820312 -31.207031 3.539062 -29.28125 Z M 3.539062 -29.28125 "/></g></g></g></g><g fill="#fefefe" fill-opacity="1"><g transform="translate(0.947318, 56.638783)"><g><path d="M 2.484375 -29.4375 C 2.785156 -31.488281 3.363281 -33.273438 4.21875 -34.796875 C 5.082031 -36.328125 6.148438 -37.597656 7.421875 -38.609375 C 8.691406 -39.628906 10.144531 -40.390625 11.78125 -40.890625 C 13.425781 -41.390625 15.191406 -41.640625 17.078125 -41.640625 C 19.109375 -41.640625 20.914062 -41.351562 22.5 -40.78125 C 24.082031 -40.207031 25.421875 -39.429688 26.515625 -38.453125 C 27.609375 -37.472656 28.4375 -36.335938 29 -35.046875 C 29.570312 -33.753906 29.859375 -32.390625 29.859375 -30.953125 C 29.859375 -29.660156 29.722656 -28.519531 29.453125 -27.53125 C 29.191406 -26.539062 28.800781 -25.679688 28.28125 -24.953125 C 27.769531 -24.222656 27.128906 -23.609375 26.359375 -23.109375 C 25.597656 -22.609375 24.726562 -22.191406 23.75 -21.859375 C 28.3125 -20.253906 30.59375 -17.144531 30.59375 -12.53125 C 30.59375 -10.34375 30.195312 -8.4375 29.40625 -6.8125 C 28.613281 -5.1875 27.550781 -3.835938 26.21875 -2.765625 C 24.894531 -1.691406 23.351562 -0.882812 21.59375 -0.34375 C 19.84375 0.1875 18.015625 0.453125 16.109375 0.453125 C 14.148438 0.453125 12.40625 0.242188 10.875 -0.171875 C 9.351562 -0.597656 8 -1.257812 6.8125 -2.15625 C 5.625 -3.050781 4.582031 -4.195312 3.6875 -5.59375 C 2.789062 -6.988281 2.015625 -8.648438 1.359375 -10.578125 L 5.265625 -12.15625 C 6.273438 -12.550781 7.210938 -12.65625 8.078125 -12.46875 C 8.953125 -12.28125 9.578125 -11.847656 9.953125 -11.171875 C 10.796875 -9.609375 11.691406 -8.472656 12.640625 -7.765625 C 13.597656 -7.054688 14.71875 -6.703125 16 -6.703125 C 16.976562 -6.703125 17.832031 -6.863281 18.5625 -7.1875 C 19.289062 -7.519531 19.894531 -7.945312 20.375 -8.46875 C 20.851562 -8.988281 21.210938 -9.578125 21.453125 -10.234375 C 21.703125 -10.890625 21.828125 -11.5625 21.828125 -12.25 C 21.828125 -13.132812 21.765625 -13.925781 21.640625 -14.625 C 21.515625 -15.332031 21.171875 -15.941406 20.609375 -16.453125 C 20.046875 -16.960938 19.191406 -17.351562 18.046875 -17.625 C 16.910156 -17.894531 15.320312 -18.03125 13.28125 -18.03125 L 13.28125 -24.09375 C 15 -24.09375 16.382812 -24.222656 17.4375 -24.484375 C 18.5 -24.742188 19.316406 -25.101562 19.890625 -25.5625 C 20.460938 -26.03125 20.84375 -26.59375 21.03125 -27.25 C 21.21875 -27.914062 21.3125 -28.644531 21.3125 -29.4375 C 21.3125 -31.050781 20.921875 -32.296875 20.140625 -33.171875 C 19.359375 -34.054688 18.164062 -34.5 16.5625 -34.5 C 15.269531 -34.5 14.175781 -34.148438 13.28125 -33.453125 C 12.382812 -32.765625 11.765625 -31.914062 11.421875 -30.90625 C 11.023438 -29.863281 10.503906 -29.171875 9.859375 -28.828125 C 9.222656 -28.492188 8.3125 -28.421875 7.125 -28.609375 Z M 2.484375 -29.4375 "/></g></g></g></g></g></svg>