<svg xmlns="http://www.w3.org/2000/svg" xmlns:xlink="http://www.w3.org/1999/xlink" width="128" zoomAndPan="magnify" viewBox="0 0 96 95.999999" height="128" preserveAspectRatio="xMidYMid meet" version="1.0"><defs><g/><clipPath id="4b88cea99b"><rect x="0" width="35" y="0" height="69"/></clipPath></defs><path fill="#ca2c31" d="M 2.828125 53.796875 L 15.082031 41.722656 L 35.949219 38.023438 L 33.886719 48.945312 L 5.675781 57.613281 L 3.855469 56.828125 Z M 2.828125 53.796875 " fill-opacity="1" fill-rule="nonzero"/><path fill="#a02422" d="M 17.203125 44.820312 L 3.898438 56.910156 L 13.6875 61.679688 L 28.546875 54.097656 L 28.546875 50.519531 L 31.582031 42.328125 Z M 17.203125 44.820312 " fill-opacity="1" fill-rule="nonzero"/><path fill="#a02422" d="M 48.691406 66.113281 L 42.261719 68.902344 L 36.195312 81.765625 C 36.195312 81.765625 41.535156 93.59375 41.773438 93.59375 C 42.015625 93.59375 45.050781 93.832031 45.050781 93.832031 L 55.851562 81.757812 L 58.582031 61.132812 Z M 48.691406 66.113281 " fill-opacity="1" fill-rule="nonzero"/><path fill="#ca2c31" d="M 42.375 75.628906 C 42.375 75.628906 45.953125 74.902344 48.503906 73.6875 C 51.050781 72.472656 54.203125 70.65625 54.203125 70.65625 L 53.046875 80.730469 L 41.761719 93.578125 C 41.761719 93.578125 41.316406 93.03125 39.441406 88.949219 C 37.949219 85.695312 37.433594 84.53125 37.433594 84.53125 Z M 42.375 75.628906 " fill-opacity="1" fill-rule="nonzero"/><path fill="#f7d74d" d="M 23.683594 60.496094 C 23.683594 60.496094 19.378906 60.136719 14.664062 66.097656 C 10.359375 71.542969 8.339844 80.40625 7.558594 82.6875 C 6.78125 84.96875 4.914062 85.433594 5.535156 86.476562 C 6.15625 87.515625 8.851562 87.457031 12.171875 87.046875 C 15.496094 86.632812 18.34375 85.589844 18.34375 85.589844 C 18.34375 85.589844 18.203125 85.949219 17.722656 86.730469 C 17.550781 87.007812 16.949219 87.40625 16.996094 87.816406 C 17.101562 88.800781 25.515625 88.824219 32.234375 81.90625 C 39.496094 74.445312 35.96875 68.324219 35.96875 68.324219 Z M 23.683594 60.496094 " fill-opacity="1" fill-rule="nonzero"/><path fill="#fbf0b4" d="M 24.984375 63.96875 C 24.984375 63.96875 20.339844 64.214844 16.5 70.175781 C 12.660156 76.140625 10.875 83.046875 11.242188 83.511719 C 11.601562 83.976562 18.757812 81.390625 20.476562 81.90625 C 21.652344 82.265625 21.046875 83.460938 21.359375 83.773438 C 21.621094 84.039062 24.726562 84.480469 29.753906 79.035156 C 34.785156 73.589844 33.59375 65.941406 33.59375 65.941406 Z M 24.984375 63.96875 " fill-opacity="1" fill-rule="nonzero"/><path fill="#858585" d="M 27.261719 55.828125 C 27.261719 55.828125 24.929688 57.90625 24.097656 59.101562 C 23.265625 60.292969 23.265625 60.398438 23.316406 60.757812 C 23.371094 61.117188 24.234375 65.070312 27.824219 68.535156 C 32.234375 72.789062 36.171875 73.359375 36.742188 73.359375 C 37.3125 73.359375 41.101562 69.105469 41.101562 69.105469 Z M 27.261719 55.828125 " fill-opacity="1" fill-rule="nonzero"/><path fill="#437687" d="M 37.574219 68.429688 C 37.574219 68.429688 41.355469 70.914062 47.691406 68.78125 C 56.355469 65.871094 62.707031 59.363281 70.574219 51.140625 C 78.164062 43.207031 84.53125 33.359375 84.53125 33.359375 L 80.070312 18.414062 Z M 37.574219 68.429688 " fill-opacity="1" fill-rule="nonzero"/><path fill="#3f545f" d="M 50.992188 60.246094 L 52.035156 57.007812 L 54.644531 57.375 C 54.644531 57.375 56.632812 58.3125 58.09375 58.996094 C 59.558594 59.675781 61.441406 60.195312 61.441406 60.195312 L 57.726562 63.328125 C 57.726562 63.328125 55.703125 62.566406 54.226562 61.921875 C 52.558594 61.191406 50.992188 60.246094 50.992188 60.246094 Z M 50.992188 60.246094 " fill-opacity="1" fill-rule="nonzero"/><path fill="#8dafbf" d="M 63.238281 12.105469 C 63.238281 12.105469 56.023438 16.289062 45.683594 26.078125 C 36.359375 34.898438 29.453125 42.878906 27.78125 49.664062 C 26.386719 55.351562 27.128906 58.800781 30.300781 62.527344 C 33.652344 66.472656 37.582031 68.429688 37.582031 68.429688 C 37.582031 68.429688 40.539062 68.476562 52.867188 58.988281 C 68.25 47.144531 80.574219 27.316406 80.574219 27.316406 Z M 63.238281 12.105469 " fill-opacity="1" fill-rule="nonzero"/><path fill="#d83f22" d="M 78.136719 31.378906 C 78.136719 31.378906 71.859375 28.703125 67.378906 22.453125 C 62.933594 16.253906 63.285156 12.058594 63.285156 12.058594 C 63.285156 12.058594 67.003906 9.140625 75.367188 5.804688 C 80.992188 3.5625 88.648438 2.414062 91.171875 4.28125 C 93.691406 6.148438 89.445312 15.515625 89.445312 15.515625 L 81.710938 30.488281 Z M 78.136719 31.378906 " fill-opacity="1" fill-rule="nonzero"/><path fill="#6896a5" d="M 51.128906 60.300781 C 51.128906 60.300781 45.703125 57.53125 42.253906 53.59375 C 35.730469 46.164062 34.378906 38.003906 34.378906 38.003906 L 37.65625 34.15625 C 37.65625 34.15625 38.476562 42.824219 45.472656 50.316406 C 50.03125 55.199219 54.796875 57.433594 54.796875 57.433594 C 54.796875 57.433594 53.84375 58.238281 52.824219 59.015625 C 52.171875 59.519531 51.128906 60.300781 51.128906 60.300781 Z M 51.128906 60.300781 " fill-opacity="1" fill-rule="nonzero"/><path fill="#a02422" d="M 84.53125 33.359375 C 84.53125 33.359375 87.789062 29.4375 90.871094 20.59375 C 95.175781 8.265625 91.425781 4.53125 91.425781 4.53125 C 91.425781 4.53125 90.15625 10.394531 85.753906 18.546875 C 82.222656 25.078125 77.949219 31.296875 77.949219 31.296875 C 77.949219 31.296875 80.300781 32.355469 81.578125 32.722656 C 83.183594 33.1875 84.53125 33.359375 84.53125 33.359375 Z M 84.53125 33.359375 " fill-opacity="1" fill-rule="nonzero"/><path fill="#b3e1ee" d="M 29.859375 52.246094 C 30.832031 53.175781 32.308594 52.199219 33.277344 49.921875 C 34.253906 47.640625 34.238281 46.363281 33.488281 45.824219 C 32.558594 45.148438 30.996094 46.628906 30.316406 47.941406 C 29.566406 49.394531 29.121094 51.539062 29.859375 52.246094 Z M 29.859375 52.246094 " fill-opacity="1" fill-rule="nonzero"/><path fill="#b3e1ee" d="M 63.710938 15.097656 C 63.710938 15.097656 58.003906 19.199219 51.914062 24.78125 C 46.328125 29.902344 42.621094 33.90625 42.113281 34.835938 C 41.574219 35.835938 41.566406 37.246094 41.984375 37.964844 C 42.40625 38.683594 43.335938 39.058594 44.183594 38.429688 C 45.03125 37.792969 51.066406 31.117188 56.519531 26.347656 C 61.507812 21.984375 65.355469 19.214844 65.355469 19.214844 C 65.355469 19.214844 66.914062 16.453125 66.660156 15.824219 C 66.40625 15.1875 63.710938 15.097656 63.710938 15.097656 Z M 63.710938 15.097656 " fill-opacity="1" fill-rule="nonzero"/><path fill="#ed6a65" d="M 63.710938 15.097656 C 63.710938 15.097656 67.925781 11.863281 72.515625 9.59375 C 76.785156 7.476562 81.03125 5.714844 81.796875 7.246094 C 82.523438 8.699219 77.765625 10.679688 73.582031 13.351562 C 69.398438 16.019531 65.371094 19.207031 65.371094 19.207031 C 65.371094 19.207031 64.753906 18.082031 64.359375 17.039062 C 64.105469 16.40625 63.890625 15.757812 63.710938 15.097656 Z M 63.710938 15.097656 " fill-opacity="1" fill-rule="nonzero"/><path fill="#e1e1e1" d="M 67.191406 29.4375 C 63.015625 25.589844 57.203125 26.625 54.335938 30.046875 C 51.398438 33.570312 51.613281 38.953125 55.085938 42.195312 C 58.246094 45.136719 64.117188 45.800781 67.65625 41.675781 C 70.808594 38.015625 70.613281 32.578125 67.191406 29.4375 Z M 67.191406 29.4375 " fill-opacity="1" fill-rule="nonzero"/><path fill="#3f545f" d="M 56.496094 31.402344 C 54.015625 33.839844 54.148438 38.671875 57.105469 40.875 C 59.683594 42.800781 63.34375 42.703125 65.640625 40.359375 C 67.933594 38.011719 67.933594 33.742188 65.78125 31.539062 C 63.308594 29.011719 59.339844 28.613281 56.496094 31.402344 Z M 56.496094 31.402344 " fill-opacity="1" fill-rule="nonzero"/><path fill="#a02524" d="M 37.5 57.667969 C 37.5 57.667969 42.140625 52.957031 42.652344 53.46875 C 43.164062 53.976562 43.09375 56.835938 40.875 60.015625 C 38.648438 63.195312 33.75 68.859375 29.871094 72.675781 C 26.046875 76.433594 20.65625 80.730469 20.144531 80.65625 C 19.746094 80.59375 18.136719 79.792969 17.488281 79.011719 C 16.859375 78.238281 18.742188 74.585938 19.5 73.378906 C 20.265625 72.171875 37.5 57.667969 37.5 57.667969 Z M 37.5 57.667969 " fill-opacity="1" fill-rule="nonzero"/><path fill="#ca2c31" d="M 15.921875 76.386719 C 15.863281 77.46875 17.511719 79.042969 17.511719 79.042969 L 42.652344 53.476562 C 42.652344 53.476562 41.476562 52.148438 38.011719 54.300781 C 34.515625 56.476562 31.453125 59.085938 26.941406 63.457031 C 20.648438 69.5625 15.984375 75.308594 15.921875 76.386719 Z M 15.921875 76.386719 " fill-opacity="1" fill-rule="nonzero"/><path fill="#ffffff" d="M 14.296875 27.710938 C 13.460938 28.546875 13.425781 29.878906 14.355469 30.644531 C 15.179688 31.328125 16.523438 30.886719 17.023438 30.269531 C 17.527344 29.65625 17.46875 28.320312 16.800781 27.660156 C 16.132812 26.992188 14.804688 27.210938 14.296875 27.710938 Z M 14.296875 27.710938 " fill-opacity="1" fill-rule="nonzero"/><path fill="#ffffff" d="M 30.765625 26.738281 C 30.136719 27.433594 30.335938 28.46875 30.921875 28.851562 C 31.507812 29.234375 32.386719 29.199219 32.8125 28.671875 C 33.195312 28.199219 33.238281 27.253906 32.65625 26.671875 C 32.144531 26.167969 31.171875 26.289062 30.765625 26.738281 Z M 30.765625 26.738281 " fill-opacity="0.5" fill-rule="nonzero"/><path fill="#ffffff" d="M 41.664062 8.917969 C 41.664062 8.917969 42.578125 6.308594 43.117188 6.277344 C 43.664062 6.246094 44.453125 8.886719 44.453125 8.886719 C 44.453125 8.886719 47.160156 8.917969 47.339844 9.316406 C 47.574219 9.824219 45.609375 11.535156 45.609375 11.535156 C 45.609375 11.535156 46.246094 14.085938 45.945312 14.390625 C 45.609375 14.730469 43.273438 13.386719 43.273438 13.386719 C 43.273438 13.386719 40.875 15.058594 40.359375 14.601562 C 39.90625 14.203125 40.84375 11.503906 40.84375 11.503906 C 40.84375 11.503906 38.59375 9.863281 38.714844 9.40625 C 38.886719 8.761719 41.664062 8.917969 41.664062 8.917969 Z M 41.664062 8.917969 " fill-opacity="1" fill-rule="nonzero"/><path fill="#ffffff" d="M 72.757812 71.496094 C 73.664062 72 74.804688 71.714844 75.226562 70.746094 C 75.609375 69.886719 74.902344 68.859375 74.265625 68.578125 C 73.628906 68.300781 72.511719 68.671875 72.105469 69.398438 C 71.707031 70.117188 72.210938 71.199219 72.757812 71.496094 Z M 72.757812 71.496094 " fill-opacity="1" fill-rule="nonzero"/><path fill="#ffffff" d="M 85.640625 49.378906 C 85.125 48.578125 84.007812 48.316406 83.28125 48.960938 C 82.574219 49.589844 82.746094 50.578125 83.144531 51.082031 C 83.542969 51.585938 84.609375 51.773438 85.253906 51.359375 C 85.898438 50.949219 85.957031 49.859375 85.640625 49.378906 Z M 85.640625 49.378906 " fill-opacity="1" fill-rule="nonzero"/><g transform="matrix(1, 0, 0, 1, 31, 12)"><g clip-path="url(#4b88cea99b)"><g fill="#0a0f1c" fill-opacity="1"><g transform="translate(0.947318, 56.638783)"><g><path d="M 12.351562 -27.734375 C 13.164062 -27.890625 13.949219 -28 14.707031 -28.0625 C 15.449219 -28.121094 16.175781 -28.148438 16.882812 -28.148438 C 19.183594 -28.148438 21.226562 -27.792969 23.011719 -27.085938 C 24.808594 -26.371094 26.324219 -25.390625 27.558594 -24.144531 C 28.796875 -22.898438 29.730469 -21.433594 30.359375 -19.753906 C 30.976562 -18.097656 31.289062 -16.332031 31.289062 -14.449219 C 31.289062 -12.097656 30.867188 -9.945312 30.027344 -7.992188 C 29.1875 -6.039062 28.019531 -4.355469 26.515625 -2.933594 C 25.019531 -1.515625 23.234375 -0.417969 21.171875 0.355469 C 19.117188 1.128906 16.878906 1.511719 14.449219 1.511719 C 13.03125 1.511719 11.671875 1.363281 10.378906 1.0625 C 9.09375 0.761719 7.886719 0.359375 6.761719 -0.152344 C 5.636719 -0.65625 4.59375 -1.246094 3.632812 -1.914062 C 2.683594 -2.582031 1.816406 -3.289062 1.042969 -4.046875 L 0.375 -4.699219 L 3.648438 -9.0625 C 4.027344 -9.566406 4.472656 -9.957031 4.992188 -10.226562 C 5.523438 -10.507812 6.09375 -10.644531 6.703125 -10.644531 C 7.46875 -10.644531 8.1875 -10.4375 8.859375 -10.019531 L 10.5 -9.003906 C 11.035156 -8.671875 11.667969 -8.367188 12.394531 -8.089844 C 13.066406 -7.832031 13.917969 -7.707031 14.957031 -7.707031 C 15.96875 -7.707031 16.820312 -7.867188 17.507812 -8.1875 C 18.183594 -8.5 18.726562 -8.921875 19.140625 -9.457031 C 19.570312 -10.011719 19.882812 -10.667969 20.082031 -11.425781 C 20.296875 -12.230469 20.402344 -13.097656 20.402344 -14.023438 C 20.402344 -15.714844 19.949219 -16.976562 19.046875 -17.8125 C 18.117188 -18.671875 16.753906 -19.101562 14.957031 -19.101562 C 13.246094 -19.101562 11.566406 -18.777344 9.917969 -18.128906 L 9.589844 -18 L 2.894531 -19.8125 L 6.710938 -42.257812 L 29.761719 -42.257812 L 29.761719 -37.578125 C 29.761719 -36.84375 29.644531 -36.171875 29.40625 -35.558594 C 29.160156 -34.910156 28.769531 -34.347656 28.238281 -33.867188 C 27.714844 -33.390625 27.046875 -33.03125 26.234375 -32.789062 C 25.476562 -32.5625 24.582031 -32.449219 23.554688 -32.449219 L 13.714844 -32.449219 L 13.714844 -33.507812 L 14.757812 -33.328125 L 13.601562 -26.515625 L 12.554688 -26.691406 Z M 11.253906 -25.359375 L 12.820312 -34.566406 L 23.554688 -34.566406 C 24.375 -34.566406 25.0625 -34.652344 25.625 -34.820312 C 26.132812 -34.972656 26.527344 -35.179688 26.816406 -35.4375 C 27.09375 -35.691406 27.300781 -35.988281 27.429688 -36.320312 C 27.570312 -36.6875 27.640625 -37.109375 27.640625 -37.578125 L 27.640625 -41.199219 L 28.699219 -41.199219 L 28.699219 -40.136719 L 7.605469 -40.136719 L 7.605469 -41.199219 L 8.652344 -41.019531 L 5.144531 -20.40625 L 4.101562 -20.585938 L 4.378906 -21.609375 L 9.804688 -20.136719 L 9.527344 -19.113281 L 9.140625 -20.101562 C 11.039062 -20.847656 12.976562 -21.222656 14.957031 -21.222656 C 17.308594 -21.222656 19.152344 -20.605469 20.484375 -19.371094 C 21.84375 -18.113281 22.523438 -16.332031 22.523438 -14.023438 C 22.523438 -12.914062 22.394531 -11.867188 22.132812 -10.886719 C 21.863281 -9.851562 21.421875 -8.941406 20.816406 -8.160156 C 20.191406 -7.355469 19.386719 -6.722656 18.402344 -6.261719 C 17.433594 -5.8125 16.285156 -5.585938 14.957031 -5.585938 C 13.660156 -5.585938 12.554688 -5.757812 11.640625 -6.105469 C 10.785156 -6.433594 10.03125 -6.796875 9.378906 -7.199219 L 7.738281 -8.21875 C 7.410156 -8.421875 7.066406 -8.523438 6.703125 -8.523438 C 6.441406 -8.523438 6.203125 -8.46875 5.980469 -8.351562 C 5.742188 -8.226562 5.53125 -8.039062 5.34375 -7.789062 L 2.628906 -4.171875 L 1.78125 -4.808594 L 2.519531 -5.566406 C 3.214844 -4.890625 3.992188 -4.253906 4.847656 -3.65625 C 5.699219 -3.0625 6.628906 -2.535156 7.632812 -2.082031 C 8.632812 -1.632812 9.710938 -1.273438 10.859375 -1.003906 C 11.996094 -0.738281 13.191406 -0.609375 14.449219 -0.609375 C 16.621094 -0.609375 18.613281 -0.949219 20.425781 -1.628906 C 22.222656 -2.304688 23.769531 -3.253906 25.058594 -4.472656 C 26.347656 -5.695312 27.355469 -7.144531 28.078125 -8.832031 C 28.804688 -10.515625 29.167969 -12.390625 29.167969 -14.449219 C 29.167969 -16.074219 28.902344 -17.59375 28.371094 -19.011719 C 27.851562 -20.40625 27.078125 -21.621094 26.054688 -22.652344 C 25.027344 -23.6875 23.75 -24.507812 22.230469 -25.113281 C 20.695312 -25.722656 18.914062 -26.027344 16.882812 -26.027344 C 16.230469 -26.027344 15.5625 -26 14.871094 -25.945312 C 14.195312 -25.894531 13.492188 -25.796875 12.757812 -25.652344 Z M 11.253906 -25.359375 "/></g></g></g><g fill="#fefefe" fill-opacity="1"><g transform="translate(0.947318, 56.638783)"><g><path d="M 12.546875 -26.6875 C 13.328125 -26.84375 14.070312 -26.945312 14.78125 -27 C 15.5 -27.050781 16.195312 -27.078125 16.875 -27.078125 C 19.039062 -27.078125 20.953125 -26.75 22.609375 -26.09375 C 24.273438 -25.4375 25.671875 -24.535156 26.796875 -23.390625 C 27.929688 -22.253906 28.785156 -20.914062 29.359375 -19.375 C 29.929688 -17.84375 30.21875 -16.203125 30.21875 -14.453125 C 30.21875 -12.242188 29.828125 -10.226562 29.046875 -8.40625 C 28.265625 -6.59375 27.175781 -5.023438 25.78125 -3.703125 C 24.382812 -2.378906 22.71875 -1.351562 20.78125 -0.625 C 18.851562 0.0898438 16.742188 0.453125 14.453125 0.453125 C 13.109375 0.453125 11.828125 0.3125 10.609375 0.03125 C 9.398438 -0.246094 8.257812 -0.628906 7.1875 -1.109375 C 6.125 -1.597656 5.140625 -2.15625 4.234375 -2.78125 C 3.335938 -3.414062 2.519531 -4.09375 1.78125 -4.8125 L 4.5 -8.421875 C 4.78125 -8.796875 5.109375 -9.082031 5.484375 -9.28125 C 5.859375 -9.476562 6.265625 -9.578125 6.703125 -9.578125 C 7.265625 -9.578125 7.796875 -9.421875 8.296875 -9.109375 C 8.796875 -8.804688 9.34375 -8.46875 9.9375 -8.09375 C 10.53125 -7.726562 11.222656 -7.394531 12.015625 -7.09375 C 12.804688 -6.789062 13.785156 -6.640625 14.953125 -6.640625 C 16.117188 -6.640625 17.117188 -6.832031 17.953125 -7.21875 C 18.785156 -7.601562 19.457031 -8.128906 19.96875 -8.796875 C 20.488281 -9.472656 20.863281 -10.257812 21.09375 -11.15625 C 21.332031 -12.050781 21.453125 -13.007812 21.453125 -14.03125 C 21.453125 -16.019531 20.882812 -17.535156 19.75 -18.578125 C 18.625 -19.628906 17.023438 -20.15625 14.953125 -20.15625 C 13.109375 -20.15625 11.300781 -19.804688 9.53125 -19.109375 L 4.09375 -20.578125 L 7.609375 -41.1875 L 28.703125 -41.1875 L 28.703125 -37.578125 C 28.703125 -36.972656 28.601562 -36.425781 28.40625 -35.9375 C 28.21875 -35.445312 27.921875 -35.015625 27.515625 -34.640625 C 27.117188 -34.273438 26.585938 -33.992188 25.921875 -33.796875 C 25.265625 -33.597656 24.472656 -33.5 23.546875 -33.5 L 13.71875 -33.5 Z M 12.546875 -26.6875 "/></g></g></g></g></g></svg>